PathFileType	4	(X/Y/Z)	C:/Users/opensim2020/Desktop/walking_exp_matlab/subject02_walking09_straight_03.trc	
DataRate	CameraRate	NumFrames	NumMarkers	Units	OrigDataRate	OrigDataStartFrame	OrigNumFrames	
100.00	100.00	9	42	mm	100.00	2276	262	
Frame#	Time	LFHD			RFHD			LBHD			RBHD			C7			T10			CLAV			STRN			RBAK			LSHO			LUPA			LELB			LFRM			LWRA			LWRB			LFIN			RSHO			RUPA			RELB			RFRM			RWRA			RWRB			RFIN			LASI			RASI			LPSI			RPSI			LTHI			LKNE			LTIB			LANK			LHEE			LTOE			RTHI			RKNE			RTIB			RANK			RHEE			RTOE			*39			*40			*41			
		X1	Y1	Z1	X2	Y2	Z2	X3	Y3	Z3	X4	Y4	Z4	X5	Y5	Z5	X6	Y6	Z6	X7	Y7	Z7	X8	Y8	Z8	X9	Y9	Z9	X10	Y10	Z10	X11	Y11	Z11	X12	Y12	Z12	X13	Y13	Z13	X14	Y14	Z14	X15	Y15	Z15	X16	Y16	Z16	X17	Y17	Z17	X18	Y18	Z18	X19	Y19	Z19	X20	Y20	Z20	X21	Y21	Z21	X22	Y22	Z22	X23	Y23	Z23	X24	Y24	Z24	X25	Y25	Z25	X26	Y26	Z26	X27	Y27	Z27	X28	Y28	Z28	X29	Y29	Z29	X30	Y30	Z30	X31	Y31	Z31	X32	Y32	Z32	X33	Y33	Z33	X34	Y34	Z34	X35	Y35	Z35	X36	Y36	Z36	X37	Y37	Z37	X38	Y38	Z38	X39	Y39	Z39	X40	Y40	Z40	X41	Y41	Z41	X42	Y42	Z42	

99	0.980	-1017.55969	-293.87946	1751.94128	-875.34436	-305.85611	1732.63794	-1040.04211	-395.40927	1642.40845	-900.42377	-418.71524	1618.23914	-964.25305	-437.05457	1515.06958	-963.72021	-484.12869	1239.72839	-975.09583	-293.98294	1452.05969	-963.83612	-237.38545	1281.42249	-900.85291	-492.61594	1342.30042	-1144.07019	-364.83554	1492.39343	-1231.84631	-401.05264	1298.29285	-1250.21191	-422.85480	1162.17761	-1279.25317	-435.81219	1034.89575	-1274.27612	-394.72400	899.74274	-1297.88306	-444.95627	913.17859	-1309.96863	-438.49783	846.87091	-777.80835	-356.81314	1483.94714	-697.26917	-375.23953	1289.56653	-680.01013	-349.27679	1145.04248	-661.56628	-308.91531	1031.98132	-680.54773	-246.08791	911.66809	-648.75250	-293.28009	903.00037	-646.44781	-249.61577	844.82837	-1090.63806	-228.19614	996.49048	-838.65924	-252.93202	964.56232	-1031.13574	-446.99857	1024.79529	-915.28961	-461.50162	1019.93781	-1152.20740	-230.66933	684.49585	-1115.30090	-233.38551	479.09232	-1111.69946	-268.83536	286.08337	-1070.14441	-243.68454	68.36864	-1015.63568	-275.75974	40.89280	-1088.27612	-87.34366	34.75023	-770.30048	-390.86758	668.23309	-781.08118	-424.84296	465.63220	-792.87524	-561.12897	336.28854	-836.30060	-675.81488	183.46622	-904.29529	-715.65021	158.74529	-810.52405	-604.61218	34.69614	-941.59418	-420.29565	1783.33447						 
100	0.990	-1020.51837	-286.42963	1752.82117	-878.02435	-298.58029	1733.73389	-1042.83337	-388.33594	1643.24683	-902.88312	-411.17780	1619.59998	-966.59277	-429.24222	1515.60071	-965.72638	-476.16132	1240.40222	-977.54010	-286.33591	1453.28394	-966.50342	-229.28482	1282.78149	-902.57782	-484.50879	1343.12280	-1146.12854	-358.09262	1493.22095	-1234.05518	-392.86987	1298.66418	-1252.29602	-413.29114	1162.58813	-1281.04260	-425.29477	1035.08850	-1275.85364	-383.63763	899.85333	-1299.59827	-433.59384	913.35254	-1311.52686	-426.88907	847.03528	-780.12378	-349.07306	1485.06470	-699.43237	-367.70978	1290.82861	-682.80316	-343.91260	1146.28430	-663.60956	-304.79324	1032.96423	-682.21545	-242.60625	912.25836	-650.68457	-290.07193	903.72314	-648.15851	-247.45677	844.83435	-1094.16284	-220.60709	997.55054	-842.60876	-244.51331	965.62311	-1033.35950	-439.12473	1025.27625	-917.68896	-453.06122	1020.56293	-1154.08777	-226.54498	684.34900	-1117.17773	-231.14078	479.07874	-1112.98608	-267.46915	286.35120	-1070.19604	-243.66954	68.34778	-1015.59009	-275.34036	40.42575	-1088.33069	-87.39302	34.64909	-770.88885	-378.75812	667.61047	-779.90607	-408.41830	465.02911	-791.32623	-546.39172	338.84943	-834.84204	-663.60626	188.54396	-903.23694	-704.06946	166.49368	-811.39032	-600.64801	35.99028	-944.48145	-413.04492	1784.49902						 
101	1.000	-1023.24432	-279.13489	1753.64575	-880.88470	-291.02695	1734.75854	-1044.85657	-380.90152	1643.90430	-905.42554	-403.80887	1620.61938	-968.75568	-421.90253	1516.28296	-967.88300	-468.21927	1241.02783	-979.88403	-278.63715	1454.34253	-969.06293	-221.29361	1283.99280	-904.45831	-476.67432	1343.99963	-1148.43811	-350.99036	1494.08691	-1236.00891	-384.69141	1298.83826	-1254.41150	-403.78293	1162.56104	-1283.16016	-414.50171	1035.08813	-1277.16589	-371.93802	900.12286	-1301.21753	-421.81702	913.40912	-1313.00549	-414.70004	846.97778	-782.56628	-341.56641	1486.16663	-701.42798	-360.83127	1291.95532	-685.48474	-338.56897	1147.15247	-665.62964	-300.48914	1033.58923	-683.28455	-238.79105	912.29022	-652.56842	-286.78674	904.31586	-650.12952	-244.95143	844.55786	-1097.38721	-213.29340	997.94427	-846.01855	-236.61896	966.32056	-1035.74011	-431.46375	1025.93506	-919.92346	-445.91403	1021.68011	-1155.52673	-222.98051	683.94879	-1118.97046	-229.19040	479.01395	-1114.14514	-265.88297	286.41898	-1070.27332	-243.66853	68.27129	-1015.58606	-275.42883	40.40607	-1088.46338	-87.44627	34.56042	-771.81335	-366.16934	666.83215	-778.78436	-392.01862	464.73462	-790.15906	-531.05627	341.04343	-833.94379	-650.68628	193.24460	-902.34619	-691.97601	173.87329	-812.29883	-595.64087	38.20150	-947.26270	-405.59167	1785.58728						 
102	1.010	-1025.94519	-271.84549	1754.44458	-883.51917	-283.54684	1735.80200	-1047.26636	-373.54208	1644.59241	-907.59857	-395.98694	1621.39026	-970.90356	-414.35297	1516.89990	-970.09137	-460.40231	1241.74133	-982.12689	-271.02045	1455.30615	-971.41699	-213.50749	1285.00061	-906.71527	-468.58990	1344.43726	-1150.75037	-343.64282	1494.56812	-1238.77466	-376.16116	1299.02502	-1256.58655	-394.03775	1162.61230	-1284.73450	-403.72159	1035.00574	-1278.34863	-359.87476	900.27600	-1302.61768	-409.81061	912.96704	-1314.44092	-402.12585	846.83557	-784.73993	-333.86218	1486.93262	-703.49622	-355.07022	1292.77271	-687.93304	-333.36700	1147.92566	-667.64166	-295.90219	1034.14368	-684.50659	-234.52229	912.63519	-654.40314	-283.23679	904.83960	-651.37433	-242.00053	844.75403	-1100.36060	-206.12679	997.84375	-848.90356	-228.90471	966.99884	-1038.32300	-424.03857	1026.76990	-922.47052	-438.56827	1022.51630	-1157.45496	-220.02136	683.11578	-1120.53552	-227.26396	478.84232	-1115.28503	-264.51041	286.32629	-1070.31128	-243.65828	68.17082	-1015.92371	-275.98395	41.07020	-1088.55237	-87.50565	34.50042	-772.58734	-353.71576	666.42792	-777.86401	-375.91989	464.77652	-789.15961	-515.27466	342.90085	-833.34979	-637.49298	197.96223	-902.46503	-678.92926	180.49292	-811.89642	-588.52570	41.67183	-949.88574	-398.23203	1786.22021						 
103	1.020	-1028.58398	-264.59326	1755.27002	-886.08783	-276.29614	1736.78674	-1050.18091	-366.31409	1645.42175	-909.97223	-388.49756	1622.23254	-973.11316	-406.74646	1517.53748	-972.44891	-452.58209	1242.50842	-984.32281	-263.37622	1456.13770	-973.62323	-205.82671	1285.87012	-909.02643	-460.12442	1344.64587	-1153.12732	-336.09995	1495.16162	-1241.01477	-367.60886	1299.01807	-1258.81824	-384.21536	1162.40454	-1287.22888	-392.28531	1034.64697	-1279.37354	-347.43555	900.36591	-1303.87451	-397.42383	912.51447	-1315.71448	-388.92670	846.55750	-786.68170	-326.54880	1487.69824	-705.29822	-347.75241	1293.53528	-690.33575	-327.60052	1148.56921	-669.53125	-291.27444	1034.61890	-685.74823	-230.72423	912.62762	-656.30157	-279.56671	905.17822	-652.84027	-239.01093	844.67865	-1102.98071	-199.12407	997.30347	-851.21484	-221.47446	967.62384	-1040.95093	-416.71262	1027.73291	-925.01648	-431.51755	1023.32568	-1159.10913	-217.49837	682.50024	-1121.98950	-225.33618	478.67181	-1116.09497	-263.42407	286.24930	-1070.19849	-243.58386	67.90401	-1015.73706	-276.22440	41.02898	-1088.62561	-87.58248	34.42469	-773.26501	-341.44101	666.50836	-777.26746	-359.41153	464.63882	-788.38586	-499.40176	344.64221	-833.62408	-624.02521	202.41759	-903.42651	-664.98969	186.05841	-810.21460	-578.61798	45.68809	-952.37952	-390.78494	1787.08655						 
104	1.030	-1031.04749	-257.34369	1755.93530	-888.59424	-268.91812	1737.76599	-1052.19714	-358.75549	1646.00244	-912.36627	-381.41266	1622.96912	-975.29468	-399.06082	1518.23499	-974.83484	-444.86493	1243.28381	-986.39606	-255.80080	1456.83191	-975.70593	-198.30675	1286.47034	-911.54150	-452.79236	1345.51111	-1155.33264	-328.36215	1495.36963	-1243.26477	-358.81226	1298.90393	-1261.00500	-374.26309	1162.08435	-1288.22327	-380.94827	1033.95435	-1280.14258	-334.55975	900.80579	-1305.02295	-384.64859	912.08234	-1316.88721	-375.31940	846.23419	-788.72113	-319.17810	1488.32776	-707.28491	-341.12000	1294.59412	-692.60449	-321.94742	1149.15063	-671.43292	-286.73444	1035.06384	-687.08710	-226.76546	912.44714	-657.95874	-275.65540	905.55853	-654.29608	-235.10323	844.59387	-1105.24634	-192.19910	996.46869	-853.15918	-214.38321	968.05731	-1043.53918	-409.55643	1028.77600	-927.66718	-424.68536	1024.07166	-1160.67285	-215.34744	682.03839	-1123.24121	-223.36337	478.47577	-1116.71277	-262.53879	286.20200	-1070.32434	-243.76965	67.86907	-1015.79303	-276.38596	41.12242	-1088.65735	-87.64244	34.39552	-773.87317	-329.08685	666.90332	-776.75525	-342.81903	465.30594	-788.08148	-483.63849	346.57721	-834.81824	-610.10767	206.56007	-905.14899	-650.13184	189.52797	-807.11444	-566.06464	50.35394	-954.95380	-383.57916	1787.87231						 
105	1.040	-1033.43738	-250.13278	1756.67639	-890.99103	-261.65076	1738.76404	-1054.31519	-351.23901	1646.31372	-914.65204	-373.72290	1623.62402	-977.44238	-391.33319	1518.99927	-977.20605	-437.32816	1244.07422	-988.33844	-248.23029	1457.35168	-977.65839	-190.94847	1286.86743	-913.92755	-444.77893	1345.87048	-1157.54065	-320.42337	1495.73962	-1245.96033	-349.82672	1298.90186	-1263.14368	-364.23242	1161.61218	-1289.97791	-369.25696	1033.37537	-1280.85168	-321.63461	900.61542	-1305.97876	-371.63519	911.26874	-1317.75415	-361.22955	845.85248	-790.71533	-311.49097	1488.69666	-709.26843	-334.56454	1295.26965	-694.65540	-316.58881	1149.73572	-673.14227	-281.77606	1035.31592	-688.36401	-222.42369	912.50610	-659.88300	-271.85114	905.74280	-655.90729	-231.62180	844.54169	-1107.36243	-185.25497	995.53717	-854.80029	-207.33273	968.52472	-1046.10754	-402.52734	1029.68994	-930.40601	-418.03351	1024.62634	-1162.05554	-213.11142	681.77576	-1124.38794	-221.42474	478.34128	-1117.38623	-261.65591	286.21283	-1070.32764	-243.81570	67.81127	-1015.81293	-276.51999	41.12082	-1088.65479	-87.69223	34.37215	-774.34344	-316.75684	667.56464	-776.29083	-326.90561	466.29547	-788.61261	-467.94763	348.58578	-836.85144	-595.53986	209.98805	-907.37964	-635.34229	191.53229	-805.01849	-551.08636	54.88733	-957.46991	-376.51312	1788.51196						 
106	1.050	-1035.81201	-242.81204	1757.34326	-893.29773	-254.45506	1739.70850	-1056.68823	-343.76205	1646.94043	-916.61493	-366.27316	1624.18787	-979.47443	-383.61908	1519.79065	-979.52026	-429.90750	1244.98206	-990.19495	-240.71811	1457.80957	-979.58002	-183.67847	1287.09485	-916.49249	-437.71631	1346.76331	-1159.58008	-312.36472	1496.18872	-1247.53845	-340.62134	1298.61414	-1265.34241	-353.80603	1161.38501	-1291.53528	-357.27371	1032.88147	-1281.17883	-308.18280	901.05902	-1306.89001	-358.22073	910.79871	-1318.57922	-346.65222	845.54584	-792.50238	-304.16766	1489.25940	-711.38849	-328.25757	1295.85559	-696.53729	-310.74429	1150.29626	-674.97345	-276.83493	1035.82861	-689.88434	-217.42291	912.89459	-661.62817	-267.31903	906.14258	-657.22687	-227.38130	844.82214	-1109.29529	-178.54555	994.54279	-856.27887	-200.60703	968.87366	-1048.44556	-395.71851	1030.58350	-932.92499	-411.55185	1025.15515	-1163.21692	-210.42485	681.58588	-1125.49915	-219.50580	478.21741	-1118.08386	-260.67957	286.28824	-1070.35657	-243.83839	67.78919	-1015.77820	-276.25058	40.72755	-1088.67200	-87.74279	34.34061	-774.64734	-304.53442	668.43628	-776.14459	-310.50980	467.44833	-789.85681	-452.25211	350.75262	-838.62872	-579.93964	212.59767	-908.98431	-619.26575	191.94733	-802.99438	-533.98358	58.90300	-959.84137	-369.22729	1788.88904						 
107	1.060	-1038.04565	-235.61737	1758.08496	-895.53296	-247.13058	1740.56287	-1058.53931	-336.22058	1647.15686	-918.91309	-358.81528	1625.04041	-981.55835	-375.83240	1520.66089	-981.84381	-422.57477	1245.90845	-992.10083	-233.18436	1458.20093	-981.36371	-176.60336	1287.23242	-919.24646	-429.58185	1347.15576	-1161.84619	-304.07437	1496.57043	-1249.87488	-331.11499	1298.59131	-1267.36938	-343.32004	1160.95032	-1292.95300	-345.09747	1032.49292	-1281.35059	-294.57440	901.34363	-1307.57227	-344.48178	910.21240	-1319.17212	-331.71661	845.38013	-794.26611	-296.48181	1489.85242	-713.61011	-322.20755	1296.25818	-698.36078	-304.95496	1150.81897	-676.69281	-271.48343	1036.25879	-691.30542	-213.00975	912.80261	-663.38330	-262.96460	906.38446	-658.71857	-223.28848	845.12958	-1111.15137	-171.97911	993.57001	-857.71167	-194.22737	968.98187	-1050.56702	-389.13791	1031.46887	-935.52698	-404.65955	1025.41016	-1164.21838	-207.18857	681.48053	-1126.43811	-217.64465	478.04889	-1118.79053	-259.71616	286.38129	-1070.33105	-243.87486	67.80264	-1015.80927	-276.69247	41.16365	-1088.71118	-87.81525	34.31477	-774.88599	-292.29138	669.51910	-776.31244	-294.42520	468.92966	-791.38959	-436.32629	352.68390	-840.08105	-563.55219	214.05676	-910.30426	-603.07666	191.82405	-801.18103	-515.41962	62.09715	-962.38910	-362.26498	1789.54358						 
